<svg width="118.338330078125px" height="122px" xmlns="http://www.w3.org/2000/svg" viewBox="190.8308349609375 14 118.338330078125 122" style="background: rgb(211, 196, 196);" preserveAspectRatio="xMidYMid"><defs><linearGradient id="editing-gradient-gradient" x1="0" x2="1" y1="0.5" y2="0.5" gradientUnits="objectBoundingBox"><stop offset="0" stop-color="#f0f"></stop><stop offset="1" stop-color="#00ffff"></stop></linearGradient></defs><g><g transform="translate(202.6934051513672, 96.1200008392334)"><path d="M43.39-33.92L43.39-33.92L43.39-33.92Q38.21-33.92 34.43-35.65L34.43-35.65L32.38-25.28L44.74-25.28L44.74-25.28Q44.74-21.89 43.04-19.74L43.04-19.74L43.04-19.74Q41.34-17.60 38.27-17.60L38.27-17.60L38.27-17.60Q34.94-17.60 31.87-18.82L31.87-18.82L31.87-18.82Q31.23-19.07 31.17-19.14L31.17-19.14L27.52 0L13.57 0L21.70-42.24L50.24-42.24L50.24-42.24Q50.24-38.34 48.42-36.13L48.42-36.13L48.42-36.13Q46.59-33.92 43.39-33.92ZM77.76-33.92L77.76-33.92L77.76-33.92Q72.58-33.92 68.80-35.65L68.80-35.65L66.75-25.28L79.10-25.28L79.10-25.28Q79.10-21.89 77.41-19.74L77.41-19.74L77.41-19.74Q75.71-17.60 72.64-17.60L72.64-17.60L72.64-17.60Q69.31-17.60 66.24-18.82L66.24-18.82L66.24-18.82Q65.60-19.07 65.54-19.14L65.54-19.14L61.89 0L47.94 0L56.06-42.24L84.61-42.24L84.61-42.24Q84.61-38.34 82.78-36.13L82.78-36.13L82.78-36.13Q80.96-33.92 77.76-33.92Z" fill="url(#editing-gradient-gradient)"></path></g></g><style>text {
  font-size: 64px;
  font-family: Arial Black;
  dominant-baseline: central;
  text-anchor: middle;
}</style></svg>